# xmcd CD database file
#
# Track frame offsets:
#	183
#	14453
#	27768
#	42515
#	56948
#	70075
#	85433
#	100405
#	113733
#	127540
#	140843
#	155870
#	169860
#	184005
#	198758
#	213780
#
# Disc length: 3008 seconds
#
# Revision: 9
# Processed by: cddbd v1.5.2PL0 Copyright (c) Steve Scherf et al.
# Submitted via: CDex 1.79
#
DISCID=e00bbe10
DTITLE=Various Artist - I got the Blues for you - Vol.2 - [CD 2)
DYEAR=1991
DGENRE=Blues
TTITLE0=Bessie Smith - Young Woman's Blues
TTITLE1=Bertha 'Chippie' Hill - Pratt City Blues
TTITLE2=Barbecue Bob - Motherless Child Blues
TTITLE3=Sippie Wallace - Lazy Man Blues
TTITLE4=Lonnie Johnson - Mean Old Bedbug Blues
TTITLE5=Cleo Gibson - I've Got Ford Movements In My Hips
TTITLE6=Victoria Spivey - How Do You Do It That Way
TTITLE7=Blind Willie Johnson - God Don't Never Change
TTITLE8=Texas Alexander - Broken Yo-Yo
TTITLE9=Lucille Bogan - Groceries On The Shelf
TTITLE10=Butterbeans And Susie - Papa Ain't No Santa Claus
TTITLE11=Leroy Carr - Midnight Hour Blues
TTITLE12=Charlie Patton - High Sheriff Blues
TTITLE13=Memphis Minnie - Chickasaw Train Blues
TTITLE14=Peetie Wheatstraw - All Night Long Blues
TTITLE15=Scrapper Blackwell - No Good Woman Blues
EXTD=YEAR: 1991
EXTT0=
EXTT1=
EXTT2=
EXTT3=
EXTT4=
EXTT5=
EXTT6=
EXTT7=
EXTT8=
EXTT9=
EXTT10=
EXTT11=
EXTT12=
EXTT13=
EXTT14=
EXTT15=
PLAYORDER=
